
<svg width="1400" height="223" viewBox="0 0 1400 223" fill="none" xmlns="http://www.w3.org/2000/svg">
<path opacity="0.5" d="M1400 222.351V0C1400 0 1228.58 128.5 1019.5 128.5C853 128.5 762 39.3511 586 105.851C410 172.351 339.163 154.77 195 99.8512C69 51.8512 0 115.851 0 115.851V222.351H1400Z" fill="#F5F4EF"/>
<path d="M0 222.351V106.684C0 106.684 73.9195 174.851 283 174.851C449.5 174.851 638 39.351 814 105.851C990 172.351 1060.84 154.77 1205 99.8511C1331 51.8511 1400 105 1400 105V222.351H0Z" fill="#51615E"/>
</svg>
